<svg width="41" height="40" viewBox="0 0 41 40" fill="none" xmlns="http://www.w3.org/2000/svg">
<g id="activity-heart">
<path id="Icon" d="M26.3333 19.1667H24.6666L22.1666 24.1667L18.8333 14.1667L16.3333 19.1667H14.6666M20.4886 8.55969C17.1563 4.664 11.5996 3.61607 7.42447 7.18336C3.24939 10.7506 2.66159 16.715 5.94031 20.934C8.4168 24.1207 15.4521 30.5183 18.7467 33.4581C19.3523 33.9986 19.6551 34.2688 20.0097 34.3752C20.3175 34.4675 20.6596 34.4675 20.9674 34.3752C21.322 34.2688 21.6248 33.9986 22.2305 33.4581C25.525 30.5183 32.5603 24.1207 35.0368 20.934C38.3155 16.715 37.7995 10.7131 33.5527 7.18336C29.3058 3.6536 23.8208 4.664 20.4886 8.55969Z" stroke="white" stroke-width="2" stroke-linecap="round" stroke-linejoin="round"/>
</g>
</svg>
