<svg width="41" height="40" viewBox="0 0 41 40" fill="none" xmlns="http://www.w3.org/2000/svg">
<g id="atom-02">
<path id="Icon" d="M29.2754 25.5969C28.8243 26.107 28.3508 26.6108 27.8558 27.1058C20.6961 34.2654 11.7263 36.9036 7.82107 32.9984C5.14373 30.321 5.5419 25.2633 8.36401 20.0404M12.2327 14.5421C12.7022 14.0082 13.1961 13.4812 13.7136 12.9637C20.8732 5.80408 29.8431 3.16589 33.7483 7.07113C36.4275 9.75032 36.0269 14.8132 33.1995 20.04M27.8558 12.9637C35.0154 20.1233 37.6536 29.0931 33.7483 32.9984C29.8431 36.9036 20.8732 34.2654 13.7136 27.1058C6.55402 19.9462 3.91583 10.9764 7.82107 7.07113C11.7263 3.16589 20.6962 5.80408 27.8558 12.9637ZM22.4167 19.9999C22.4167 20.9204 21.6705 21.6666 20.75 21.6666C19.8295 21.6666 19.0833 20.9204 19.0833 19.9999C19.0833 19.0795 19.8295 18.3333 20.75 18.3333C21.6705 18.3333 22.4167 19.0795 22.4167 19.9999Z" stroke="white" stroke-width="2" stroke-linecap="round" stroke-linejoin="round"/>
</g>
</svg>
