<svg width="40" height="40" viewBox="0 0 40 40" fill="none" xmlns="http://www.w3.org/2000/svg">
<g id="globe-05">
<path id="Icon" d="M25 4.09638C23.4216 3.60063 21.742 3.33337 20 3.33337C10.7952 3.33337 3.33331 10.7953 3.33331 20C3.33331 29.2048 10.7952 36.6667 20 36.6667C29.2047 36.6667 36.6666 29.2048 36.6666 20C36.6666 17.1412 35.9468 14.4504 34.6786 12.0991M28.3333 9.58337H28.3416M17.5001 36.4805L17.5002 32.8083C17.5003 32.6093 17.5714 32.417 17.7009 32.266L21.8438 27.4324C22.1843 27.0352 22.0788 26.4261 21.6246 26.1665L16.8642 23.4463C16.7349 23.3724 16.6277 23.2651 16.5539 23.1358L13.4507 17.6978C13.2892 17.4147 12.9776 17.2518 12.653 17.2807L3.44029 18.1013M35 10C35 13.6819 31.6666 16.6667 28.3333 20C25 16.6667 21.6666 13.6819 21.6666 10C21.6666 6.31814 24.6514 3.33337 28.3333 3.33337C32.0152 3.33337 35 6.31814 35 10ZM28.75 9.58337C28.75 9.81349 28.5634 10 28.3333 10C28.1032 10 27.9166 9.81349 27.9166 9.58337C27.9166 9.35326 28.1032 9.16671 28.3333 9.16671C28.5634 9.16671 28.75 9.35326 28.75 9.58337Z" stroke="white" stroke-width="2" stroke-linecap="round" stroke-linejoin="round"/>
</g>
</svg>
