<svg width="41" height="40" viewBox="0 0 41 40" fill="none" xmlns="http://www.w3.org/2000/svg">
<g id="microscope">
<path id="Icon" d="M5.25 36.6667H20.25M18.5833 10.4201C19.6487 10.1459 20.7657 10 21.9167 10C29.2805 10 35.25 15.9696 35.25 23.3334C35.25 28.929 31.8031 33.7196 26.9167 35.6975M9.41667 21.6667H16.0833C16.8578 21.6667 17.245 21.6667 17.567 21.7308C18.8893 21.9938 19.9229 23.0274 20.186 24.3497C20.25 24.6717 20.25 25.0589 20.25 25.8334C20.25 26.6078 20.25 26.995 20.186 27.317C19.9229 28.6393 18.8893 29.673 17.567 29.936C17.245 30 16.8578 30 16.0833 30H9.41667C8.64224 30 8.25503 30 7.93303 29.936C6.61073 29.673 5.57707 28.6393 5.31405 27.317C5.25 26.995 5.25 26.6078 5.25 25.8334C5.25 25.0589 5.25 24.6717 5.31405 24.3497C5.57707 23.0274 6.61073 21.9938 7.93303 21.7308C8.25503 21.6667 8.64224 21.6667 9.41667 21.6667ZM6.91667 9.16671V21.6667H18.5833V9.16671C18.5833 5.94505 15.9717 3.33337 12.75 3.33337C9.52834 3.33337 6.91667 5.94505 6.91667 9.16671Z" stroke="white" stroke-width="2" stroke-linecap="round" stroke-linejoin="round"/>
</g>
</svg>
