<svg width="41" height="40" viewBox="0 0 41 40" fill="none" xmlns="http://www.w3.org/2000/svg">
<g id="translate-01">
<path id="Icon" d="M22.0217 28.3333H33.9782M22.0217 28.3333L18.8333 35M22.0217 28.3333L26.7971 18.3484C27.1819 17.5438 27.3743 17.1415 27.6376 17.0144C27.8665 16.9038 28.1334 16.9038 28.3624 17.0144C28.6256 17.1415 28.818 17.5438 29.2028 18.3484L33.9782 28.3333M33.9782 28.3333L37.1666 35M3.83331 8.33333H13.8333M13.8333 8.33333H19.6666M13.8333 8.33333V5M19.6666 8.33333H23.8333M19.6666 8.33333C18.8397 13.2621 16.921 17.727 14.1092 21.474M17.1666 23.3333C16.1458 22.8747 15.1044 22.2368 14.1092 21.474M14.1092 21.474C11.855 19.7463 9.83792 17.3777 8.83331 15M14.1092 21.474C11.4347 25.0382 7.95237 27.953 3.83331 30" stroke="white" stroke-width="2" stroke-linecap="round" stroke-linejoin="round"/>
</g>
</svg>
