<svg width="40" height="40" viewBox="0 0 40 40" fill="none" xmlns="http://www.w3.org/2000/svg">
<g id="palette">
<g id="Icon">
<path d="M3.33337 20C3.33337 29.2048 10.7953 36.6667 20 36.6667C22.7615 36.6667 25 34.4281 25 31.6667V30.8334C25 30.0593 25 29.6723 25.0428 29.3474C25.3382 27.1037 27.1037 25.3382 29.3474 25.0428C29.6723 25 30.0593 25 30.8334 25H31.6667C34.4281 25 36.6667 22.7615 36.6667 20C36.6667 10.7953 29.2048 3.33337 20 3.33337C10.7953 3.33337 3.33337 10.7953 3.33337 20Z" stroke="white" stroke-width="2" stroke-linecap="round" stroke-linejoin="round"/>
<path d="M11.6667 21.6667C12.5872 21.6667 13.3334 20.9205 13.3334 20C13.3334 19.0796 12.5872 18.3334 11.6667 18.3334C10.7462 18.3334 10 19.0796 10 20C10 20.9205 10.7462 21.6667 11.6667 21.6667Z" stroke="white" stroke-width="2" stroke-linecap="round" stroke-linejoin="round"/>
<path d="M26.6667 15C27.5872 15 28.3334 14.2538 28.3334 13.3334C28.3334 12.4129 27.5872 11.6667 26.6667 11.6667C25.7462 11.6667 25 12.4129 25 13.3334C25 14.2538 25.7462 15 26.6667 15Z" stroke="white" stroke-width="2" stroke-linecap="round" stroke-linejoin="round"/>
<path d="M16.6667 13.3334C17.5872 13.3334 18.3334 12.5872 18.3334 11.6667C18.3334 10.7462 17.5872 10 16.6667 10C15.7462 10 15 10.7462 15 11.6667C15 12.5872 15.7462 13.3334 16.6667 13.3334Z" stroke="white" stroke-width="2" stroke-linecap="round" stroke-linejoin="round"/>
</g>
</g>
</svg>
